<?xml version="1.0" encoding="utf-8"?>
<!-- Generator: Adobe Illustrator 25.2.3, SVG Export Plug-In . SVG Version: 6.00 Build 0)  -->
<svg version="1.1" id="Capa_1" xmlns="http://www.w3.org/2000/svg" xmlns:xlink="http://www.w3.org/1999/xlink" x="0px" y="0px"
	 viewBox="0 0 317.5 317.5" style="enable-background:new 0 0 317.5 317.5;" xml:space="preserve">
<style type="text/css">
	.st0{fill:#FFFFFF;}
</style>
<path class="st0" d="M103.6,221.2c37.8-7.3,112.1-24.7,143.4-53.7c-2.9-4.1-40.7-23.6-40.7-23.6s45,0,63.2,0
	c31.1-4.3,42.4-144,42.4-144S182.8,70.1,148.5,113.8c-34.3,43.8-67.9,111.4-67.9,111.4l0,0c-42.5,45.1-75.1,81.1-75.1,81.1l35.7-19
	L103.6,221.2z M296.6,23.4c-1.4,11.6-3.4,26.2-6.1,41.1c-10.1,55.3-20.7,65.2-22.6,66.6h-61.4c-5.9,0-11.1,4.1-12.5,9.8
	c-1.4,5.8,1.3,11.7,6.6,14.5c8,4.1,16.9,8.9,24.1,12.9c-28.1,17.3-73.1,29.5-105.6,36.6L281.8,32C287.1,28.9,292.1,26,296.6,23.4z
	 M158.6,121.8c18.5-23.6,67.9-56.3,106.9-80c-29.5,27-69.1,64.2-106.8,102.2c-14.7,14.9-29.7,30.4-44.3,45.6
	C126.7,168.1,142.7,142.1,158.6,121.8z M179.2,270.7c39.3,4.4,77.7,13.4,115,25.6c-19.3-3.6-38.5-7.1-57.8-9.6
	c-19.3-2.7-38.7-4.8-58-6c-16.7-0.9-33.5-1.2-50,0c3.5,0.6,7.1,1.3,10.6,1.9c9.6,1.8,19.3,3.6,29.1,5.8c4.9,1.2,9.7,2.4,15,4.4
	c1.3,0.5,2.7,1.1,4.2,2c0.8,0.5,1.6,1,2.6,1.9c0.9,0.9,2.3,2.2,2.8,5.3c0.4,3.2-1.3,5.6-2.3,6.6c-1.1,1.1-2,1.7-2.8,2.2l-1.3,0.7
	l-1,0.5l-2.1,0.8c-10.8,3.4-20.6,3.8-30.6,4.4c-9.9,0.5-19.8,0.4-29.7,0.1c-39.4-1-78.4-5.2-117.2-11c19.6,0.3,39.1,1,58.7,1
	c19.5,0.3,39.1,0.4,58.5,0c9.7-0.3,19.4-0.7,29-1.4c7.4-0.6,15.1-1.4,21.9-3.1c-2.7-0.8-5.6-1.5-8.4-2.2c-9.3-2.1-18.9-3.7-28.5-5.4
	c-9.6-1.8-19.2-3.4-29.2-5.9c-2.6-0.8-4.8-1.2-8.5-3c-0.5-0.3-1-0.6-1.9-1.3c-0.6-0.7-2.2-1.9-2.5-5.3c-0.1-1.6,0.6-3.1,1.2-4
	c0.6-0.9,1.2-1.4,1.6-1.7c0.9-0.7,1.5-1,2.1-1.3c2.1-0.9,3.4-1.2,4.8-1.5c5.4-1.1,10.3-1.6,15.3-2
	C139.7,267.7,159.6,268.5,179.2,270.7z"/>
</svg>
