<svg width="20" height="20" viewBox="0 0 20 20" fill="none" xmlns="http://www.w3.org/2000/svg">
<path fill-rule="evenodd" clip-rule="evenodd" d="M10 20C15.5228 20 20 15.5228 20 10C20 4.47715 15.5228 0 10 0C4.47715 0 0 4.47715 0 10C0 15.5228 4.47715 20 10 20ZM7.3337 5.74993C9.70218 4.31242 12.7563 4.99992 14.2521 7.31244C15.6857 9.68746 15.0001 12.75 12.6939 14.25C11.8837 14.75 10.9487 15 10.0138 15C9.14122 15 8.26863 14.75 7.45836 14.3125L7.27137 14.1875L5.40153 14.6875L5.90015 12.8125L5.7755 12.625C4.27962 10.3125 5.02756 7.18744 7.3337 5.74993ZM11.946 12.8125C12.3823 12.75 12.6939 12.5 12.9432 12.125C13.0679 11.9375 13.0679 11.6875 13.0056 11.5C12.9432 11.4375 12.8186 11.375 12.6939 11.3125L11.6967 10.8125C11.572 10.75 11.5097 10.75 11.385 10.875C11.2604 11 10.9487 11.3125 10.8864 11.4375C10.8241 11.5625 10.6994 11.5625 10.5748 11.5C10.1385 11.3125 9.7645 11.0625 9.39053 10.75C9.07889 10.4375 8.76725 10.0625 8.51794 9.68746C8.45561 9.56246 8.51794 9.43746 8.6426 9.37496C8.67376 9.34371 8.70492 9.29683 8.73609 9.24996C8.76725 9.20308 8.79842 9.15621 8.82958 9.12496C8.89191 9.06246 8.95424 8.93745 8.89191 8.81245C8.95424 8.74995 8.95424 8.62495 8.89191 8.56245C8.89191 8.514 8.70461 8.05234 8.56233 7.70167C8.52109 7.60001 8.48363 7.50768 8.45561 7.43744C8.39328 7.18744 8.26863 7.18744 8.14397 7.18744H7.83233C7.70767 7.18744 7.58302 7.24994 7.45836 7.37494C7.14672 7.68744 6.95973 8.12495 6.95973 8.62495C7.02206 9.18746 7.20905 9.74996 7.58302 10.1875C8.2063 11.125 9.07889 11.9375 10.1385 12.4375C11.2001 12.8633 11.5837 12.8358 11.8281 12.8183C11.8707 12.8152 11.909 12.8125 11.946 12.8125Z" fill="#30C9FC"/>
</svg>
