<svg width="18" height="22" viewBox="0 0 18 22" fill="none" xmlns="http://www.w3.org/2000/svg">
<path d="M9.5 21H15C15.5304 21 16.0391 20.7893 16.4142 20.4142C16.7893 20.0391 17 19.5304 17 19V6L12 1H3C2.46957 1 1.96086 1.21071 1.58579 1.58579C1.21071 1.96086 1 2.46957 1 3V12.5" stroke="white" stroke-width="2" stroke-linecap="round" stroke-linejoin="round"/>
<path d="M11 1V5C11 5.53043 11.2107 6.03914 11.5858 6.41421C11.9609 6.78929 12.4696 7 13 7H17M10.378 14.626C10.5753 14.4288 10.7317 14.1946 10.8385 13.9369C10.9452 13.6792 11.0002 13.4029 11.0002 13.124C11.0002 12.8451 10.9452 12.5688 10.8385 12.3111C10.7317 12.0534 10.5753 11.8192 10.378 11.622C10.1808 11.4248 9.9466 11.2683 9.68888 11.1615C9.43117 11.0548 9.15495 10.9999 8.87601 10.9999C8.59706 10.9999 8.32084 11.0548 8.06313 11.1615C7.80542 11.2683 7.57125 11.4248 7.37401 11.622L2.36401 16.634C2.12625 16.8716 1.95223 17.1653 1.85801 17.488L1.02101 20.358C0.99591 20.444 0.994405 20.5353 1.01665 20.6221C1.0389 20.7089 1.08407 20.7882 1.14745 20.8516C1.21083 20.9149 1.29009 20.9601 1.37692 20.9824C1.46375 21.0046 1.55496 21.0031 1.64101 20.978L4.51101 20.141C4.83367 20.0468 5.12739 19.8728 5.36501 19.635L10.378 14.626Z" stroke="white" stroke-width="2" stroke-linecap="round" stroke-linejoin="round"/>
</svg>
